# xmcd
#
# Track frame offsets: 
#        150
#        11749
#        25047
#        42513
#        56359
#        69509
#        83394
#        96779
#        114440
#        129069
#        141331
#
# Disc length: 2115 seconds
#
# Revision: 0
# Processed by: cddbd v1.5.2PL0 Copyright (c) Steve Scherf et al.
# Submitted via: ExactAudioCopy v0.95b4
#
DISCID=8208410b
DTITLE=Celilo - The Man Who Owns The Sand
DYEAR=2007
DGENRE=Alternative
TTITLE0=Marmalade
TTITLE1=Strangers
TTITLE2=Stardust
TTITLE3=Back To The Sun
TTITLE4=Christmas Cash
TTITLE5=None Shall Be King
TTITLE6=Hangover Song
TTITLE7=The Man Who Owns The Sand
TTITLE8=Ring Without A Finger
TTITLE9=Lonesome Country Thief
TTITLE10=Good And Plenty
EXTD=
EXTT0=
EXTT1=
EXTT2=
EXTT3=
EXTT4=
EXTT5=
EXTT6=
EXTT7=
EXTT8=
EXTT9=
EXTT10=
PLAYORDER=
